<?xml version="1.0" standalone="no"?><svg xmlns="http://www.w3.org/2000/svg" viewBox="0 0 1440 320"><path fill="#f3f4f5" fill-opacity="1" d="M0,64L10.4,64C20.9,64,42,64,63,74.7C83.5,85,104,107,125,117.3C146.1,128,167,128,188,149.3C208.7,171,230,213,250,234.7C271.3,256,292,256,313,218.7C333.9,181,355,107,376,74.7C396.5,43,417,53,438,85.3C459.1,117,480,171,501,192C521.7,213,543,203,563,165.3C584.3,128,605,64,626,69.3C647,75,668,149,689,160C709.6,171,730,117,751,90.7C772.2,64,793,64,814,101.3C834.8,139,856,213,877,229.3C897.4,245,918,203,939,176C960,149,981,139,1002,149.3C1022.6,160,1043,192,1064,218.7C1085.2,245,1106,267,1127,266.7C1147.8,267,1169,245,1190,213.3C1210.4,181,1231,139,1252,138.7C1273,139,1294,181,1315,208C1335.7,235,1357,245,1377,240C1398.3,235,1419,213,1430,202.7L1440,192L1440,320L1429.6,320C1419.1,320,1398,320,1377,320C1356.5,320,1336,320,1315,320C1293.9,320,1273,320,1252,320C1231.3,320,1210,320,1190,320C1168.7,320,1148,320,1127,320C1106.1,320,1085,320,1064,320C1043.5,320,1023,320,1002,320C980.9,320,960,320,939,320C918.3,320,897,320,877,320C855.7,320,835,320,814,320C793,320,772,320,751,320C730.4,320,710,320,689,320C667.8,320,647,320,626,320C605.2,320,584,320,563,320C542.6,320,522,320,501,320C480,320,459,320,438,320C417.4,320,397,320,376,320C354.8,320,334,320,313,320C292.2,320,271,320,250,320C229.6,320,209,320,188,320C167,320,146,320,125,320C104.3,320,83,320,63,320C41.7,320,21,320,10,320L0,320Z"></path></svg>